<svg width="32" height="33" viewBox="0 0 32 33" fill="none" xmlns="http://www.w3.org/2000/svg">
<g clip-path="url(#clip0_665_41)">
<path d="M27.0895 6.48914C25.0495 5.56914 22.8628 4.88914 20.5762 4.50247C20.5558 4.49856 20.5347 4.50108 20.5158 4.50968C20.497 4.51828 20.4812 4.53253 20.4708 4.55047C20.1908 5.04247 19.8788 5.6838 19.6602 6.19047C17.2349 5.82812 14.7694 5.82812 12.3442 6.19047C12.1006 5.62895 11.8259 5.08143 11.5215 4.55047C11.5112 4.53231 11.4956 4.51774 11.4767 4.50868C11.4579 4.49963 11.4368 4.49653 11.4162 4.4998C9.13082 4.88647 6.94415 5.56647 4.90282 6.4878C4.88526 6.49517 4.87037 6.50773 4.86015 6.5238C0.710819 12.6238 -0.426514 18.5731 0.132153 24.4478C0.133707 24.4622 0.138173 24.4761 0.145279 24.4887C0.152385 24.5013 0.161982 24.5124 0.173486 24.5211C2.59534 26.2844 5.2966 27.6276 8.16415 28.4945C8.18414 28.5006 8.20552 28.5006 8.2255 28.4944C8.24548 28.4882 8.26313 28.4762 8.27615 28.4598C8.89321 27.6346 9.44002 26.7591 9.91082 25.8425C9.91735 25.8299 9.92112 25.8161 9.92186 25.802C9.92261 25.7879 9.92031 25.7738 9.91512 25.7607C9.90994 25.7475 9.90199 25.7356 9.89182 25.7258C9.88164 25.716 9.86948 25.7085 9.85615 25.7038C8.99483 25.3794 8.16027 24.988 7.36015 24.5331C7.34578 24.5249 7.33366 24.5133 7.3249 24.4992C7.31613 24.4852 7.31099 24.4692 7.30993 24.4527C7.30887 24.4362 7.31193 24.4196 7.31884 24.4046C7.32574 24.3895 7.33627 24.3764 7.34949 24.3665C7.51749 24.2425 7.68549 24.1131 7.84549 23.9838C7.85989 23.9722 7.87724 23.9648 7.8956 23.9624C7.91396 23.9601 7.93262 23.9628 7.94949 23.9705C13.1855 26.3225 18.8562 26.3225 24.0308 23.9705C24.0477 23.9624 24.0666 23.9592 24.0852 23.9614C24.1038 23.9635 24.1215 23.9708 24.1362 23.9825C24.2962 24.1131 24.4628 24.2425 24.6322 24.3665C24.6455 24.3762 24.6562 24.3892 24.6633 24.4041C24.6704 24.419 24.6738 24.4354 24.673 24.452C24.6722 24.4685 24.6673 24.4845 24.6588 24.4987C24.6503 24.5129 24.6384 24.5247 24.6242 24.5331C23.8268 24.9918 22.9975 25.3798 22.1268 25.7025C22.1134 25.7073 22.1013 25.715 22.0911 25.7249C22.0809 25.7348 22.073 25.7468 22.0678 25.7601C22.0626 25.7733 22.0603 25.7875 22.0611 25.8018C22.0618 25.816 22.0656 25.8298 22.0722 25.8425C22.5522 26.7585 23.1015 27.6305 23.7055 28.4585C23.718 28.4755 23.7355 28.4882 23.7556 28.4948C23.7756 28.5015 23.7972 28.5019 23.8175 28.4958C26.69 27.6313 29.3956 26.2875 31.8202 24.5211C31.832 24.5129 31.8419 24.5022 31.8493 24.4897C31.8566 24.4773 31.8612 24.4635 31.8628 24.4491C32.5295 17.6571 30.7455 11.7558 27.1308 6.52647C27.122 6.50947 27.1073 6.49623 27.0895 6.48914ZM10.6935 20.8705C9.11749 20.8705 7.81749 19.4451 7.81749 17.6971C7.81749 15.9478 9.09215 14.5238 10.6935 14.5238C12.3068 14.5238 13.5948 15.9598 13.5695 17.6971C13.5695 19.4465 12.2948 20.8705 10.6935 20.8705ZM21.3268 20.8705C19.7495 20.8705 18.4508 19.4451 18.4508 17.6971C18.4508 15.9478 19.7242 14.5238 21.3268 14.5238C22.9402 14.5238 24.2282 15.9598 24.2028 17.6971C24.2028 19.4465 22.9415 20.8705 21.3268 20.8705Z" fill="white"/>
</g>
<defs>
<clipPath id="clip0_665_41">
<rect width="32" height="32" fill="white" transform="translate(0 0.5)"/>
</clipPath>
</defs>
</svg>
