<svg width="32" height="33" viewBox="0 0 32 33" fill="none" xmlns="http://www.w3.org/2000/svg">
<path fill-rule="evenodd" clip-rule="evenodd" d="M1.33337 4.28417C1.33337 3.63421 1.59157 3.01087 2.05116 2.55128C2.51075 2.09169 3.13408 1.8335 3.78404 1.8335H28.2134C28.5355 1.83297 28.8545 1.89598 29.1522 2.01892C29.4499 2.14186 29.7205 2.32231 29.9484 2.54995C30.1763 2.77758 30.357 3.04793 30.4803 3.34551C30.6035 3.64309 30.6669 3.96207 30.6667 4.28417V28.7135C30.6671 29.0357 30.6039 29.3547 30.4808 29.6525C30.3577 29.9502 30.1771 30.2207 29.9494 30.4486C29.7217 30.6764 29.4512 30.8572 29.1536 30.9804C28.8559 31.1037 28.5369 31.167 28.2147 31.1668H3.78404C3.4621 31.1668 3.14332 31.1034 2.8459 30.9802C2.54849 30.8569 2.27827 30.6763 2.05069 30.4486C1.8231 30.2209 1.64262 29.9506 1.51954 29.6531C1.39646 29.3556 1.3332 29.0368 1.33337 28.7148V4.28417ZM12.944 13.0175H16.916V15.0122C17.4894 13.8655 18.956 12.8335 21.16 12.8335C25.3854 12.8335 26.3867 15.1175 26.3867 19.3082V27.0708H22.1107V20.2628C22.1107 17.8762 21.5374 16.5295 20.0814 16.5295C18.0614 16.5295 17.2214 17.9815 17.2214 20.2628V27.0708H12.944V13.0175ZM5.61071 26.8882H9.88804V12.8335H5.61071V26.8868V26.8882ZM10.5 8.2495C10.5081 8.61573 10.4429 8.97988 10.3084 9.32059C10.1738 9.66129 9.97251 9.97168 9.71635 10.2335C9.46019 10.4954 9.15431 10.7035 8.81665 10.8455C8.47899 10.9876 8.11636 11.0607 7.75004 11.0607C7.38372 11.0607 7.02109 10.9876 6.68343 10.8455C6.34578 10.7035 6.03989 10.4954 5.78373 10.2335C5.52757 9.97168 5.3263 9.66129 5.19172 9.32059C5.05714 8.97988 4.99198 8.61573 5.00004 8.2495C5.01587 7.53064 5.31255 6.84655 5.82656 6.34375C6.34056 5.84094 7.03101 5.55939 7.75004 5.55939C8.46908 5.55939 9.15953 5.84094 9.67353 6.34375C10.1875 6.84655 10.4842 7.53064 10.5 8.2495Z" fill="white"/>
</svg>
