<svg width="20" height="20" viewBox="0 0 20 20" fill="none" xmlns="http://www.w3.org/2000/svg">
<path d="M17.0408 17.0412H14.0774V12.4004C14.0774 11.2937 14.0577 9.86911 12.5362 9.86911C10.9927 9.86911 10.7566 11.0749 10.7566 12.3198V17.0409H7.79328V7.49747H10.6381V8.80169H10.6779C10.9626 8.3149 11.374 7.91443 11.8683 7.64295C12.3626 7.37147 12.9212 7.23914 13.4848 7.26005C16.4883 7.26005 17.042 9.23567 17.042 11.8058L17.0408 17.0412ZM4.44953 6.19302C3.49977 6.19317 2.72969 5.42333 2.72953 4.47357C2.72938 3.5238 3.49914 2.75372 4.44891 2.75357C5.39868 2.75333 6.16875 3.52317 6.16891 4.47294C6.16899 4.92904 5.98789 5.36649 5.66545 5.68906C5.34301 6.01164 4.90563 6.19291 4.44953 6.19302ZM5.93125 17.0413H2.96477V7.49747H5.93118V17.0412L5.93125 17.0413ZM18.5181 0.00145562H1.47571C0.670238 -0.00760688 0.00969116 0.637627 -0.000152588 1.4431V18.5566C0.00937866 19.3625 0.669847 20.0083 1.47563 19.9999H18.5181C19.3256 20.0099 19.9887 19.364 19.9998 18.5566V1.44177C19.9884 0.634737 19.3252 -0.0104194 18.5181 0.000127492" fill="#0A66C2"/>
</svg>
