<svg width="101" height="99" viewBox="0 0 101 99" fill="none" xmlns="http://www.w3.org/2000/svg">
<path d="M80.395 54.7161L86.8572 57.3142L89.3254 64.3282L80.395 54.7161Z" fill="white"/>
<path d="M97.0552 69.187L100.97 70.3118L100.52 71.8417L91.4301 76.2967L78.9197 70.4914L67.3545 75.3515L75.0495 70.0862L66.1843 68.2412C66.1843 68.2412 77.9521 68.3089 78.1094 68.4662C78.2666 68.6234 91.3394 75.0812 91.3394 75.0812L97.6393 71.7062L97.0552 69.187Z" fill="white"/>
<path d="M56.9421 98.3889C56.8471 98.2522 56.7495 98.1161 56.6507 97.9812C56.6482 97.9793 56.647 97.9775 56.6463 97.9756C56.5792 97.8737 56.5134 97.7699 56.4487 97.6655C56.6109 97.9079 56.7756 98.149 56.9421 98.3889Z" fill="white"/>
<path d="M49.1879 67.9517L57.3714 65.7438C57.1309 65.8084 56.8052 66.208 56.6213 66.3634C55.9309 66.9456 55.2529 67.5441 54.5868 68.1549C53.4558 69.1914 52.3546 70.2702 51.2696 71.3552C50.2754 72.3482 49.3209 73.4432 48.8908 74.8078C48.4521 76.1979 48.5721 77.6769 48.8237 79.1018C48.9667 78.839 49.1201 78.5631 49.2351 78.3978C50.5488 76.495 53.1041 75.0781 55.4648 75.3951C55.1373 75.3733 54.5731 75.8531 54.3512 76.0525C52.0675 78.0964 51.2597 80.6889 51.4672 83.7134C51.7282 87.5214 53.124 91.1866 54.8055 94.5789C55.3138 95.6043 55.834 96.6781 56.4485 97.6655C56.5132 97.7699 56.579 97.8737 56.6462 97.9756C56.5654 97.865 56.4827 97.7556 56.3995 97.6462C55.4996 96.4686 54.4811 95.3563 53.5931 94.1769C52.4926 92.7147 51.4312 91.2226 50.4102 89.7026C49.4346 88.2497 48.4875 86.7751 47.5896 85.2713L47.589 85.2707C47.5865 85.2669 47.584 85.2632 47.5821 85.2595C46.632 83.6699 45.7365 82.0474 44.9193 80.3857C43.0812 76.6466 41.3947 72.475 41.3947 68.2419C41.3947 68.2419 38.9575 69.6712 37.9675 71.669C37.9675 71.669 41.8707 55.9589 49.1873 50.1567C49.1487 50.2524 46.0373 57.9754 47.6729 62.0196C47.8674 62.5019 59.4972 55.4388 66.1843 58.2097C66.1843 58.2097 57.5882 59.552 49.1879 67.9517Z" fill="white"/>
<path d="M75.6398 80.8547V88.7505H74.1397L70.203 83.9569V88.7505H68.3984V80.8547H69.9097L73.8352 85.6484V80.8547H75.6398Z" fill="white"/>
<path d="M76.8977 80.8545H78.7247V88.7503H76.8977V80.8545Z" fill="white"/>
<path d="M87.2243 80.8545V88.7503H85.7242L81.7875 83.9566V88.7503H79.9829V80.8545H81.4942L85.4197 85.6481V80.8545H87.2243Z" fill="white"/>
<path d="M61.272 87.4822L61.4497 87.0583H61.4472L61.272 87.4822Z" fill="white"/>
<path d="M65.113 87.0583L65.2883 87.4815L65.113 87.0583Z" fill="white"/>
<path d="M61.2722 87.4824L61.4474 87.0586H61.4499L62.2633 85.1185L63.2862 82.6484L64.309 85.1185L65.1132 87.0586L65.2884 87.4818V87.4824L65.8129 88.7507H67.73L64.1997 80.855H62.3951L58.876 88.7507H60.7483L61.2722 87.4824Z" fill="white"/>
<path d="M54.8491 84.3741L58.1203 80.855H56.0895L54.1476 82.9044L54.0233 83.0349L52.6897 84.4418L54.324 86.472L56.1802 88.7507H58.3117L54.8491 84.3741Z" fill="white"/>
<path d="M94.4354 87.2837H90.989V88.7502H94.4354V87.2837Z" fill="white"/>
<path d="M90.1382 85.457V84.0358V82.3213V80.8547H88.3218V88.7505H90.1382V87.2839V85.457Z" fill="white"/>
<path d="M94.2887 80.8545H90.989V82.321H94.2887V80.8545Z" fill="white"/>
<path d="M93.8034 84.0356H90.989V85.4568H93.8034V84.0356Z" fill="white"/>
<path d="M47.5891 85.2707C47.5848 85.2651 47.5829 85.262 47.5829 85.262C47.5829 85.262 47.5829 85.2614 47.5823 85.2595C47.5841 85.2633 47.5866 85.267 47.5891 85.2707Z" fill="white"/>
<path d="M56.9024 98.3522C56.8378 98.2621 56.6613 98.0141 56.3997 97.6462C56.4829 97.7556 56.5656 97.865 56.6464 97.9756C56.647 97.9775 56.6482 97.9793 56.6507 97.9812C56.7321 98.1067 56.816 98.2304 56.9024 98.3522Z" fill="white"/>
<path d="M56.9222 98.3806C56.916 98.3713 56.9092 98.3614 56.9023 98.3521C56.911 98.3645 56.9179 98.3744 56.9222 98.3806Z" fill="white"/>
<path d="M57.213 92.2356L56.8451 92.6134V93.2069H56.4138V90.8853H56.8451V92.0759L57.9928 90.8853H58.4769L57.5019 91.9237L58.5366 93.2075H58.0326L57.213 92.2356Z" fill="white"/>
<path d="M65.4653 90.886H65.8966V92.8428H67.1108V93.2076H65.4659V90.886H65.4653Z" fill="white"/>
<path d="M75.6082 92.6701H74.4474L74.2187 93.2076H73.7744L74.819 90.886H75.2435L76.2918 93.2076H75.8406L75.6082 92.6701ZM75.4659 92.332L75.0278 91.3173L74.5934 92.332H75.4659Z" fill="white"/>
<path d="M85.2837 90.886V93.2076H84.9289L83.6487 91.6354V93.2076H83.2206V90.886H83.5754L84.8555 92.4582V90.886H85.2837Z" fill="white"/>
<path d="M92.7419 93.1648C92.5748 93.1139 92.443 93.0468 92.3455 92.9622L92.4946 92.6273C92.5897 92.7025 92.7065 92.764 92.8445 92.8112C92.9824 92.8591 93.1216 92.8827 93.2608 92.8827C93.4336 92.8827 93.5622 92.8553 93.6473 92.8C93.7325 92.7447 93.7747 92.672 93.7747 92.5813C93.7747 92.5148 93.7511 92.4601 93.7033 92.4173C93.6554 92.3744 93.5958 92.3402 93.5224 92.316C93.4497 92.2917 93.3497 92.2638 93.2241 92.2333C93.047 92.1911 92.9041 92.1494 92.7947 92.1072C92.6854 92.0649 92.5915 91.9997 92.5126 91.9096C92.4343 91.8201 92.3952 91.6989 92.3952 91.5466C92.3952 91.4186 92.43 91.3018 92.4996 91.1968C92.5692 91.0918 92.6742 91.0085 92.8146 90.9464C92.9551 90.8842 93.1272 90.8538 93.3304 90.8538C93.4721 90.8538 93.6113 90.8718 93.7486 90.9066C93.886 90.942 94.004 90.993 94.1035 91.0595L93.9674 91.3944C93.8654 91.3347 93.7592 91.2894 93.6492 91.2583C93.5386 91.2272 93.4311 91.2117 93.3273 91.2117C93.157 91.2117 93.0303 91.2403 92.9476 91.2981C92.865 91.3559 92.8233 91.4317 92.8233 91.5268C92.8233 91.5932 92.8469 91.6473 92.8948 91.6896C92.942 91.7318 93.0023 91.7648 93.0756 91.789C93.1483 91.8132 93.2484 91.8412 93.3739 91.8716C93.5467 91.9114 93.6877 91.9531 93.7983 91.9959C93.909 92.0388 94.0034 92.1047 94.0817 92.1935C94.16 92.2818 94.1998 92.4017 94.1998 92.5521C94.1998 92.6801 94.165 92.7963 94.0954 92.9001C94.0258 93.0039 93.9201 93.0871 93.7785 93.1487C93.6368 93.2108 93.4646 93.2413 93.2608 93.2413C93.0818 93.2406 92.9091 93.2152 92.7419 93.1648Z" fill="white"/>
<path d="M64.5943 44.0456C64.5943 44.0456 64.6086 44.0077 64.6378 43.9363C64.5496 43.9711 64.4607 44.0071 64.3718 44.0456H64.5943Z" fill="white"/>
<path d="M89.0651 50.6756C88.4157 50.6756 80.1024 46.2592 80.1024 46.2592L83.9993 33.6593L77.1152 39.2446V27.8142C52.1758 44.8305 49.188 59.2487 49.188 59.2487C58.7025 53.9555 69.6787 56.6505 69.6787 56.6505C68.7534 55.3679 65.3921 52.7213 65.3921 52.7213C68.672 53.3061 73.7378 56.4231 73.7378 56.4231L79.7127 51.1299L86.7267 54.0201C86.7267 54.0201 93.2211 66.0675 94.0333 66.8797C94.8449 67.6913 95.4297 67.0419 95.4297 67.0419C92.4425 64.0548 89.7151 50.6756 89.0651 50.6756ZM70.4169 44.0457C70.4169 44.0457 67.8038 42.6947 64.6377 43.9363C64.9503 43.1831 67.042 38.6095 73.7645 33.1615C73.7645 33.1615 69.8458 40.6186 70.4169 44.0457Z" fill="white"/>
</svg>
