<svg width="32" height="33" viewBox="0 0 32 33" fill="none" xmlns="http://www.w3.org/2000/svg">
<path d="M31.5241 7.08244C30.4107 7.57578 29.2147 7.90911 27.9574 8.05978C29.2547 7.2835 30.2253 6.06173 30.6881 4.62244C29.4692 5.34643 28.1352 5.85604 26.7441 6.12911C25.8086 5.13026 24.5695 4.46821 23.2192 4.24574C21.8688 4.02327 20.4829 4.25283 19.2764 4.89878C18.0699 5.54473 17.1104 6.57093 16.5469 7.81805C15.9834 9.06517 15.8474 10.4634 16.1601 11.7958C13.6903 11.6718 11.2742 11.0298 9.06862 9.91165C6.86302 8.79346 4.91718 7.22399 3.35739 5.30511C2.82406 6.22511 2.51739 7.29178 2.51739 8.42778C2.51679 9.45044 2.76863 10.4574 3.25056 11.3594C3.73249 12.2614 4.4296 13.0305 5.28006 13.5984C4.29376 13.5671 3.32922 13.3006 2.46672 12.8211V12.9011C2.46662 14.3354 2.96277 15.7256 3.87097 16.8358C4.77917 17.9459 6.04349 18.7077 7.44939 18.9918C6.53443 19.2394 5.57517 19.2759 4.64406 19.0984C5.04072 20.3326 5.81338 21.4118 6.85388 22.185C7.89438 22.9582 9.15061 23.3867 10.4467 23.4104C8.2465 25.1377 5.52924 26.0746 2.73206 26.0704C2.23656 26.0706 1.74149 26.0416 1.24939 25.9838C4.08869 27.8093 7.39384 28.7782 10.7694 28.7744C22.1961 28.7744 28.4427 19.3104 28.4427 11.1024C28.4427 10.8358 28.4361 10.5664 28.4241 10.2998C29.6391 9.42108 30.6879 8.33297 31.5214 7.08644L31.5241 7.08244Z" fill="white"/>
</svg>
