<svg width="22" height="19" viewBox="0 0 22 19" fill="none" xmlns="http://www.w3.org/2000/svg">
<path d="M22 2.31362C21.1762 2.69969 20.3024 2.9531 19.4076 3.06543C20.3396 2.47453 21.0552 1.5388 21.3922 0.423889C20.5062 0.980057 19.5369 1.37191 18.5261 1.58253C17.7027 0.654616 16.5297 0.074707 15.2315 0.074707C12.7388 0.074707 10.7178 2.21253 10.7178 4.84925C10.7178 5.22353 10.7577 5.58789 10.8347 5.93743C7.08348 5.73825 3.7577 3.83743 1.53149 0.948707C1.14305 1.65389 0.920477 2.47416 0.920477 3.34907C0.920477 5.00562 1.71738 6.46698 2.92841 7.32325C2.21164 7.29951 1.51065 7.09472 0.883953 6.72598C0.883695 6.74598 0.883695 6.76598 0.883695 6.78607C0.883695 9.09943 2.43951 11.0293 4.50424 11.4679C3.83959 11.6591 3.14242 11.6871 2.46598 11.5497C3.0403 13.4466 4.70723 14.827 6.68224 14.8656C5.13752 16.1462 3.19129 16.9095 1.07671 16.9095C0.712336 16.9095 0.353117 16.8869 0 16.8428C1.99745 18.1975 4.36992 18.988 6.91883 18.988C15.221 18.988 19.7608 11.7124 19.7608 5.40298C19.7608 5.19589 19.7565 4.98998 19.7478 4.78525C20.6314 4.10951 21.3941 3.27254 22 2.31362Z" fill="#55ACEE"/>
</svg>
